# xmcd CD database file
#
# Track frame offsets:
#	150
#	3662
#	18280
#	20601
#	36034
#	37854
#	50191
#	52941
#	68019
#	71402
#	82714
#	85454
#	100521
#	101801
#	118130
#	123308
#	137867
#	140402
#	164989
#	168345
#	178357
#	183626
#	198541
#	201219
#	220591
#	223542
#	243476
#	245210
#	255515
#	260678
#	274491
#	277333
#	296091
#	297005
#	312008
#
# Disc length: 4223 seconds
#
# Revision: 3
# Processed by: cddbd v1.5.2PL0 Copyright (c) Steve Scherf et al.
# Submitted via: CDex 1.70beta2
#
DISCID=22107d23
DTITLE=Various Artist - Ghost Brothers Of Darkland County
DYEAR=2013
DGENRE=Rock
TTITLE0=Introduction By The Zydeco Cowboy
TTITLE1=Elvis Costello - That's Me
TTITLE2=Anna And Frank Badmouthing Drake
TTITLE3=Neko Case - That's Who I Am
TTITLE4='the Ghosts Argue And Fight'
TTITLE5=Dave Alvin, Phil Alvin, Sheryl Crow - So Goddam Smart
TTITLE6=Monique And Anna Meet
TTITLE7=Elvis Costello - Wrong, Wrong, Wrong About Me
TTITLE8=Kris Kristofferson, Phil Alvin, Sheryl Crow, Dave Alvin and Taj Mahal] - Frank And Drake Argue
TTITLE9=Ryan Bingham, Will Dailey - Brotherly Love
TTITLE10=Monique, Frank, Drake, And Anna Argue
TTITLE11=Kris Kristofferson - How Many Days
TTITLE12=The Ghosts Talk
TTITLE13=Sheryl Crow, Dave Alvin, Phil Alvin, Taj Mahal - Home Again
TTITLE14=Monique Confronts Drake
TTITLE15=Ryan Bingham - You Are Blind
TTITLE16=Joe Begins To Tell His Story
TTITLE17=Taj Mahal - Tear This Cabin Down
TTITLE18=Joe Continues His Story
TTITLE19=Clyde Mulroney - My Name Is Joe
TTITLE20=Jenna Expresses Her Feelings
TTITLE21=Sheryl Crow - Away From This World
TTITLE22=Monique Frustrated With The Boys
TTITLE23=Rosanne Cash - You Don't Know Me
TTITLE24=Joe Continues SS The Ghosts Observe
TTITLE25=Sheryl Crow, Dave Alvin, Phil Alvin - And Your Days Are Gone
TTITLE26=Jack And Andy Fight Over Jenna
TTITLE27=Sheryl Crow] - Jukin'
TTITLE28=Jack And Andy Argue And Fight
TTITLE29=Phil Alvin, Dave Alvin, Sheryl Crow - So Goddamn Good
TTITLE30=John Mellencamp With Lily and Madeline Jurkiewicz - Joe Talks With His Younger Self
TTITLE31=Kris Kristofferson, Phil Alvin, Sheryl Crow, Dave Alvin, Taj Mahal] - What Kind Of Man Am I
TTITLE32='the Shape Sums Things Up'
TTITLE33=John Mellencamp With Lily And Madeline Jurkiewicz - Truth
TTITLE34=Joe Talks With The Bartender
EXTD=YEAR: 2013
EXTT0=
EXTT1=
EXTT2=
EXTT3=
EXTT4=
EXTT5=
EXTT6=
EXTT7=
EXTT8=
EXTT9=
EXTT10=
EXTT11=
EXTT12=
EXTT13=
EXTT14=
EXTT15=
EXTT16=
EXTT17=
EXTT18=
EXTT19=
EXTT20=
EXTT21=
EXTT22=
EXTT23=
EXTT24=
EXTT25=
EXTT26=
EXTT27=
EXTT28=
EXTT29=
EXTT30=
EXTT31=
EXTT32=
EXTT33=
EXTT34=
PLAYORDER=
